<svg width="145" height="104" viewBox="0 0 145 104" fill="none" xmlns="http://www.w3.org/2000/svg">
<g clip-path="url(#clip0_3_19808)">
<path d="M140.606 86.8927V65.6289C140.606 63.3976 139.288 61.3849 137.223 60.4661L108.179 47.6029V5.64409C108.179 2.53765 105.63 0 102.511 0H42.4455C39.3258 0 36.7773 2.53765 36.7773 5.64409V47.6029L7.73333 60.4661C5.71212 61.3849 4.39394 63.3976 4.39394 65.6289V86.8927C1.88939 87.5053 0 89.7366 0 92.4493V101.025C0 102.644 1.31818 103.956 2.94394 103.956H60.2409C60.6803 103.956 61.0758 103.781 61.3833 103.431C63.4485 101.069 61.8227 98.3121 59.4939 98.3121H5.75606C5.75606 98.3121 5.66818 98.3122 5.66818 98.2247V92.4493C5.66818 92.4493 5.66818 92.3618 5.75606 92.3618H139.288C139.288 92.3618 139.376 92.3618 139.376 92.4493V98.2247C139.376 98.2247 139.376 98.3121 139.288 98.3121H85.5939C84.1879 98.3121 82.9136 99.3185 82.6939 100.719C82.4303 102.469 83.7924 103.956 85.5061 103.956H139.288C142.452 103.956 145.044 101.375 145.044 98.2247V92.4493C145.044 89.7366 143.155 87.5053 140.65 86.8927H140.606ZM80.5409 27.2579V43.2276H64.503V27.2579H80.5409ZM64.4591 21.6138V5.64409H80.497V21.6138H64.4591ZM64.4591 64.8414V48.8717H80.497V64.8414H64.4591ZM86.1652 64.8414V48.8717H102.203V64.8414H86.1652ZM102.203 43.2276H86.1652V27.2579H102.203V43.2276ZM58.8349 43.2276H42.797V27.2579H58.8349V43.2276ZM42.797 48.8717H58.8349V64.8414H42.797V48.8717ZM69.5121 70.7918V86.7615H61.0318V70.7918H69.5121ZM75.4879 70.7918H83.9682V86.7615H75.4879V70.7918ZM89.6364 70.7918H102.511V86.7615H89.6364V70.7918ZM102.203 21.6138H86.1652V5.64409H102.203V21.6138ZM42.797 5.64409H58.8349V21.6138H42.797V5.64409ZM10.0621 65.5414L36.7773 53.6845V86.7177H10.0621V65.5414ZM42.4455 70.7918H55.3197V86.7615H42.4455V70.7918ZM108.179 86.7615V53.7282L134.894 65.5852V86.7615H108.179Z" fill="#415F26"/>
<path d="M72.5 103.956C74.0773 103.956 75.356 102.683 75.356 101.112C75.356 99.5418 74.0773 98.2686 72.5 98.2686C70.9226 98.2686 69.6439 99.5418 69.6439 101.112C69.6439 102.683 70.9226 103.956 72.5 103.956Z" fill="#415F26"/>
</g>
<defs>
<clipPath id="clip0_3_19808">
<rect width="145" height="104" fill="white"/>
</clipPath>
</defs>
</svg>
