<svg width="145" height="140" viewBox="0 0 145 140" fill="none" xmlns="http://www.w3.org/2000/svg">
<g clip-path="url(#clip0_8_589)">
<path d="M142.168 89.9671C143.732 89.9671 145 88.687 145 87.108C145 85.529 143.732 84.249 142.168 84.249C140.603 84.249 139.335 85.529 139.335 87.108C139.335 88.687 140.603 89.9671 142.168 89.9671Z" fill="#415F26"/>
<path d="M139.701 52.4309C143.447 49.3413 145.594 44.4072 144.772 39.0119C143.812 32.925 139.015 28.0831 132.985 27.1608C124.168 25.7774 116.539 32.6944 116.539 41.3176C116.539 45.7445 118.503 49.6641 121.656 52.2925C121.656 52.2925 121.564 52.3848 121.519 52.4309L117.91 56.0738C111.925 50.3558 103.976 45.9289 94.9763 43.2082V38.3202C94.9763 31.0343 90.0425 24.9474 83.3727 23.195C85.4741 20.6127 86.6619 17.2925 86.5705 13.6957C86.3421 6.50203 80.586 0.5073 73.4593 0.0461666C65.2819 -0.46108 58.4751 6.08701 58.4751 14.203C58.4751 17.6153 59.6629 20.751 61.6729 23.195C55.0031 24.9012 50.0693 31.0343 50.0693 38.3202V42.9777C41.0696 45.7445 33.1206 50.1252 27.1361 55.8433L23.5271 52.2003C23.5271 52.2003 23.4357 52.1081 23.39 52.062C27.0447 48.9724 29.1462 44.0844 28.2782 38.7352C27.3188 32.6944 22.522 27.8525 16.4918 26.9302C7.67483 25.5468 0.0456543 32.4177 0.0456543 41.0409C0.0456543 45.5139 2.10142 49.4796 5.25359 52.1081C2.10142 54.4599 0.0456543 58.2412 0.0456543 62.4836V112.563C0.0456543 114.13 1.3248 115.422 2.87804 115.422H22.4307C23.9839 115.422 25.263 114.13 25.263 112.563V101.957C31.3847 108.459 40.0646 113.577 50.252 116.621C49.8409 118.05 49.6124 119.618 49.6124 121.186V137.095C49.6124 138.663 50.8916 139.954 52.4448 139.954H92.1896C93.7429 139.954 95.022 138.663 95.022 137.095V121.186C95.022 119.572 94.7936 118.05 94.3825 116.621C104.57 113.577 113.25 108.459 119.371 101.957V112.563C119.371 114.13 120.651 115.422 122.204 115.422H142.259C143.812 115.422 145.046 114.177 145.046 112.609V99.7431C145.046 98.3136 144.041 97.0225 142.624 96.838C140.934 96.6535 139.518 97.9908 139.518 99.697V109.888H125.31V73.1358L127.96 70.4612C129.011 69.4006 129.148 67.6022 128.097 66.4954C127.046 65.3887 125.265 65.3426 124.168 66.4493L115.899 74.7958C115.397 75.3031 114.666 75.6259 113.935 75.6259H99.2706C97.9458 75.6259 96.758 74.7497 96.4839 73.4586C96.1184 71.6601 97.4433 70.0462 99.1792 70.0462H112.793C113.113 70.0462 113.387 69.9078 113.615 69.6773L126.681 56.0277C126.681 56.0277 127.183 55.6588 127.503 55.6588H136.64C138.239 55.6588 139.564 56.95 139.564 58.6101V75.2109C139.564 75.5336 139.701 75.8564 139.929 76.087C142.305 78.3927 145.046 76.6865 145.046 74.2886V62.7142C145.046 58.4717 142.99 54.6443 139.838 52.2925L139.701 52.4309ZM72.4086 5.53365C77.114 5.53365 80.9058 9.40717 80.9058 14.1107C80.9058 18.8143 77.0683 22.6878 72.4086 22.6878C67.7489 22.6878 63.9114 18.8143 63.9114 14.1107C63.9114 9.40717 67.7489 5.53365 72.4086 5.53365ZM65.419 28.4059H79.5353C85.0173 28.4059 89.4486 32.8788 89.4486 38.4124V41.6404C84.0579 40.4414 78.3475 39.842 72.5 39.842C66.6525 39.842 60.942 40.4875 55.5513 41.6404V38.4124C55.5513 32.8788 59.9826 28.4059 65.4647 28.4059H65.419ZM14.0249 32.7405C18.7303 32.7405 22.522 36.614 22.522 41.3176C22.522 46.0211 18.6846 49.8947 14.0249 49.8947C9.36512 49.8947 5.5277 46.0211 5.5277 41.3176C5.5277 36.614 9.36512 32.7405 14.0249 32.7405ZM19.7353 109.888H5.48201V62.8525C5.48201 58.8867 8.63419 55.7049 12.563 55.7049H17.2227C17.9537 55.7049 18.6846 56.0277 19.2328 56.535L31.7958 69.2161C32.344 69.7695 33.0293 70.0462 33.8059 70.0462H46.506C47.9221 70.0462 49.2013 71.0607 49.3383 72.4902C49.5211 74.1964 48.2419 75.6259 46.5973 75.6259H31.3847C30.608 75.6259 29.9228 75.3492 29.3746 74.7958L20.9231 66.311C19.9637 65.3426 18.4562 65.112 17.3598 65.8499C15.7608 66.8643 15.6238 69.0317 16.8572 70.2767L19.6896 73.0897V109.888H19.7353ZM89.4486 134.42H55.5056V121.739C55.5056 116.206 59.937 111.733 65.419 111.733H79.5353C85.0173 111.733 89.4486 116.206 89.4486 121.739V134.42ZM63.9114 97.1147C63.9114 92.365 67.7489 88.5376 72.4086 88.5376C77.0683 88.5376 80.9058 92.4111 80.9058 97.1147C80.9058 101.818 77.0683 105.692 72.4086 105.692C67.7489 105.692 63.9114 101.818 63.9114 97.1147ZM109.686 64.0514H98.2199C93.6058 64.0514 89.677 67.6483 89.4943 72.3057C89.3116 76.9632 93.1947 81.2056 97.9915 81.2056H113.204C115.443 81.2056 117.635 80.2833 119.234 78.7155V93.0106C113.981 101.403 103.976 108.044 91.5501 111.502C89.4486 108.827 86.5249 106.845 83.1899 105.968C85.4284 103.248 86.6619 99.6509 86.3878 95.7774C85.8396 88.8143 80.2205 83.1885 73.2766 82.6812C65.0079 82.0817 58.1096 88.7221 58.1096 96.9302C58.1096 100.343 59.2974 103.524 61.3075 105.968C57.9269 106.845 55.0031 108.827 52.9474 111.502C40.4757 108.044 30.5167 101.403 25.263 93.0106V78.7155C26.862 80.3294 29.0091 81.2517 31.2933 81.2517H46.2775C50.8916 81.2517 54.8204 77.6549 55.0031 72.9974C55.1859 68.34 51.3027 64.0975 46.506 64.0975H34.8109L30.7451 59.9935C40.3387 50.9091 55.6427 45.56 72.2716 45.56C88.9004 45.56 104.204 50.9091 113.798 59.9935L109.732 64.0975L109.686 64.0514ZM130.792 49.8947C126.087 49.8947 122.295 46.0211 122.295 41.3176C122.295 36.614 126.133 32.7405 130.792 32.7405C135.452 32.7405 139.29 36.614 139.29 41.3176C139.29 46.0211 135.452 49.8947 130.792 49.8947Z" fill="#415F26"/>
</g>
<defs>
<clipPath id="clip0_8_589">
<rect width="145" height="140" fill="white"/>
</clipPath>
</defs>
</svg>
