<svg width="188" height="238" viewBox="0 0 188 238" fill="none" xmlns="http://www.w3.org/2000/svg">
<g clip-path="url(#clip0_2_6549)">
<path d="M185.408 154.189C169.928 146.634 151.997 147.543 137.358 156.568C129.723 161.255 123.699 167.831 119.566 175.387C119.566 174.617 119.566 173.918 119.566 173.148C119.566 160.905 117.395 148.942 113.262 137.749C116.764 139.218 120.477 139.988 124.329 139.988C126.781 139.988 129.232 139.638 131.684 139.008C146.884 134.951 155.989 119.28 151.857 104.029C149.195 94.0247 141.21 86.3292 131.404 83.8107C141.21 81.2922 149.195 73.5967 151.857 63.5926C155.919 48.4115 146.884 32.7407 131.684 28.6132C121.668 25.9547 111.021 28.9629 103.946 36.1687C106.398 27.4938 104.577 18.1893 98.903 10.9835C97.292 8.95472 94.4201 8.60493 92.3888 10.214C90.3576 11.823 90.0073 14.6913 91.6184 16.7202C96.1012 22.4568 96.9418 30.3621 93.7897 36.8683L81.602 62.1934C79.9209 61.7737 78.1698 61.5638 76.4187 61.5638C74.6675 61.5638 72.8464 61.7737 71.2354 62.1934L59.0476 36.8683C55.8956 30.2922 56.7361 22.3868 61.219 16.7202C62.83 14.6913 62.4798 11.7531 60.4485 10.214C58.4172 8.60493 55.4753 8.95472 53.9343 10.9835C48.2607 18.2592 46.4395 27.5638 48.8911 36.1687C41.7465 28.9629 31.1698 25.9547 21.1534 28.6132C13.7987 30.572 7.63475 35.3292 3.78229 41.9053C-0.000119791 48.4815 -0.980746 56.1769 0.980506 63.5226C3.6422 73.5267 11.6273 81.2222 21.4336 83.7407C11.6273 86.2592 3.6422 93.9547 0.980506 103.959C-0.980746 111.305 -0.000119791 119 3.85234 125.576C7.7048 132.152 13.7987 136.909 21.2234 138.868C23.675 139.498 26.1266 139.848 28.5781 139.848C36.213 139.848 43.5677 136.77 48.9611 131.313C46.2294 141.107 48.9611 151.741 56.3158 159.086C61.9194 164.683 69.204 167.412 76.4887 167.412C83.7734 167.412 91.128 164.613 96.6616 159.086C101.425 154.329 104.296 148.103 104.857 141.667C108.429 151.601 110.25 162.165 110.25 173.008C110.25 193.996 103.456 213.864 90.4976 230.374C88.8866 232.403 89.3069 235.342 91.2681 236.881C92.1087 237.51 93.1593 237.86 94.14 237.86C95.5409 237.86 96.8717 237.23 97.7823 236.041C104.857 226.947 110.32 217.012 113.963 206.379L118.586 203.51C124.89 206.169 131.474 207.498 138.128 207.498C147.234 207.498 156.27 204.979 164.255 200.012C178.894 190.988 187.72 175.317 187.86 158.177C187.86 156.358 186.879 154.749 185.268 153.979L185.408 154.189ZM108.499 45.2634C113.122 38.5473 121.527 35.4691 129.372 37.5679C134.346 38.8971 138.478 42.1152 141.07 46.5226C143.662 51 144.292 56.1769 142.961 61.144C140.86 69.0494 133.995 74.716 125.8 75.3457L97.7823 77.5144C96.8017 74.0864 94.9805 71.0082 92.5289 68.4897L108.429 45.3333L108.499 45.2634ZM76.4887 70.8683C83.6333 70.8683 89.447 76.6749 89.447 83.8107C89.447 90.9465 83.6333 96.7531 76.4887 96.7531C69.3441 96.7531 63.5304 90.9465 63.5304 83.8107C63.5304 76.6749 69.3441 70.8683 76.4887 70.8683ZM9.94623 61.144C8.61538 56.1769 9.31583 51 11.8374 46.5226C14.4291 42.0453 18.5617 38.8971 23.5349 37.5679C31.45 35.4691 39.7853 38.5473 44.4082 45.2634L60.3084 68.4197C57.9268 70.9383 56.1057 74.0164 55.055 77.4444L27.0371 75.2757C18.9119 74.6461 12.0476 68.9794 9.87618 61.0741L9.94623 61.144ZM44.4783 122.288C39.8553 129.004 31.45 132.082 23.6049 129.984C18.6318 128.654 14.4991 125.436 11.9075 121.029C9.31583 116.621 8.68542 111.374 10.0163 106.407C12.1176 98.502 18.982 92.8354 27.1772 92.2057L55.1951 90.037C56.1757 93.465 57.9969 96.5432 60.4485 99.0617L44.5483 122.218L44.4783 122.288ZM90.0774 152.65C86.435 156.288 81.602 158.317 76.4887 158.317C71.3754 158.317 66.4723 156.288 62.9 152.65C57.1564 146.914 55.6154 138.099 59.1176 130.753L71.3054 105.428C72.9865 105.848 74.7376 106.058 76.4887 106.058C78.2398 106.058 80.061 105.848 81.672 105.428L93.8598 130.753C97.362 138.099 95.8911 146.914 90.0774 152.65ZM108.499 122.288L92.599 99.1317C94.9805 96.6132 96.8017 93.535 97.8523 90.107L125.87 92.2757C133.995 92.9053 140.86 98.572 143.031 106.477C145.763 116.691 139.669 127.325 129.442 130.053C121.527 132.152 113.192 129.074 108.569 122.358L108.499 122.288ZM159.492 192.317C150.246 198.053 139.319 199.732 129.022 197.284L150.946 183.782C153.118 182.453 153.818 179.584 152.487 177.416C151.156 175.247 148.285 174.547 146.113 175.877L124.189 189.379C126.641 179.095 133.015 170.14 142.331 164.403C153.328 157.617 166.706 156.498 178.684 161.255C177.633 174.058 170.629 185.461 159.632 192.317H159.492Z" fill="#415F26"/>
<path d="M76.4887 9.23457C79.0419 9.23457 81.1116 7.16734 81.1116 4.61728C81.1116 2.06723 79.0419 0 76.4887 0C73.9355 0 71.8657 2.06723 71.8657 4.61728C71.8657 7.16734 73.9355 9.23457 76.4887 9.23457Z" fill="#415F26"/>
</g>
<defs>
<clipPath id="clip0_2_6549">
<rect width="188" height="238" fill="white"/>
</clipPath>
</defs>
</svg>
