<svg width="224" height="238" viewBox="0 0 224 238" fill="none" xmlns="http://www.w3.org/2000/svg">
<g clip-path="url(#clip0_3_12753)">
<path d="M211.183 136.432C211.183 136.432 210.99 136.239 210.861 136.11C217.882 110.638 212.729 83.2357 212.407 81.6276C212.021 79.7622 210.604 78.347 208.736 77.9611C208.35 77.8968 206.16 77.4465 202.746 77.0605C205.645 58.5995 202.296 41.2319 202.167 40.46C201.78 38.5946 200.363 37.1795 198.496 36.7935C197.465 36.6005 173.313 31.9692 151.545 38.5303C137.826 16.5313 115.929 1.67243 114.576 0.771892C113.03 -0.257297 110.97 -0.257297 109.424 0.771892C108.071 1.67243 86.1737 16.5313 72.4554 38.5303C50.6866 31.9049 26.5992 36.6005 25.5043 36.7935C23.6366 37.1795 22.2197 38.5946 21.8332 40.46C21.7044 41.2319 18.291 58.5995 21.2536 77.0605C17.8401 77.5108 15.6504 77.8968 15.2639 77.9611C13.3962 78.347 11.9793 79.7622 11.5929 81.6276C11.2708 83.2357 6.05404 110.574 13.1386 136.046C4.57273 146.016 0.0643921 157.273 0.0643921 168.723C0.0643921 187.634 12.0437 205.323 33.7481 218.381C54.7441 230.989 82.567 237.936 112.064 237.936C141.562 237.936 169.385 230.989 190.381 218.381C212.085 205.323 224.064 187.698 224.064 168.723C224.064 157.402 219.62 146.209 211.248 136.368L211.183 136.432ZM203.777 86.5805C205.387 97.9659 209.251 137.075 188.899 157.337C168.547 177.664 129.389 173.804 118.054 172.196C117.539 168.594 116.766 162.226 116.637 154.507C116.637 153.092 116.637 151.677 116.637 150.197C116.895 134.181 120.179 114.176 132.867 101.439C153.219 81.113 192.377 84.9724 203.712 86.5805H203.777ZM193.537 45.413C194.309 51.0735 195.533 63.4881 193.472 76.16C184.971 75.5811 173.764 75.5811 162.429 77.6395C162.558 76.16 162.622 74.7449 162.622 73.2654C162.622 63.8741 160.11 54.9973 156.182 46.8924C170.866 42.9686 186.903 44.5124 193.537 45.413ZM112.193 9.84162C121.725 16.9173 153.928 43.0973 153.928 73.3941C153.928 75.5811 153.734 77.8324 153.412 80.0838C143.623 82.9784 134.22 87.674 126.684 95.2C122.691 99.1881 119.471 103.755 116.895 108.644V70.1778C116.895 67.9908 115.478 65.9968 113.417 65.4178C110.325 64.6459 107.492 66.9616 107.492 69.9849V108.644C104.915 103.755 101.695 99.2524 97.7021 95.2C90.1668 87.674 80.7636 82.9784 70.9741 80.0838C70.6521 77.8324 70.4589 75.5811 70.4589 73.3941C70.4589 43.1616 102.661 16.9173 112.193 9.84162ZM30.3991 45.413C37.0328 44.5124 53.0052 42.9686 67.7539 46.8924C63.8252 55.0616 61.3134 63.9384 61.3134 73.2654C61.3134 74.6805 61.3134 76.16 61.5066 77.6395C50.1714 75.5811 38.9649 75.5811 30.4635 76.16C28.4025 63.5524 29.6262 51.0735 30.3991 45.413ZM20.1587 86.5805C31.494 84.9724 70.6521 81.113 91.004 101.439C103.885 114.304 107.105 134.759 107.234 150.905C107.234 151.934 107.234 152.963 107.234 153.928C107.17 161.904 106.397 168.53 105.882 172.261C94.4819 173.869 55.3237 177.728 35.0362 157.402C14.6843 137.075 18.5486 97.9659 20.1587 86.6449V86.5805ZM185.486 210.469C165.907 222.241 139.823 228.737 112 228.737C84.1771 228.737 58.0931 222.241 38.5141 210.469C19.7079 199.148 9.33869 184.354 9.33869 168.787C9.33869 161.068 11.8505 153.606 16.8096 146.531C19.6435 152.899 23.4433 158.881 28.5313 163.963C44.1173 179.529 68.0115 183.003 86.1093 183.003C99.6987 183.003 110.003 181.073 110.97 180.88C111.356 180.816 111.742 180.687 112.064 180.494C112.386 180.687 112.773 180.816 113.159 180.88C114.125 181.073 124.43 183.003 138.02 183.003C156.053 183.003 179.947 179.529 195.597 163.963C200.685 158.881 204.485 152.899 207.319 146.531C212.278 153.606 214.79 161.068 214.79 168.787C214.79 184.354 204.421 199.148 185.615 210.469H185.486Z" fill="#415F26"/>
<path d="M112 53.6465C110.068 53.6465 108.265 52.36 107.62 50.5589C106.976 48.7578 107.556 46.6995 108.973 45.4773C110.519 44.1908 112.708 43.9978 114.447 45.0913C116.057 46.1205 116.895 48.0503 116.573 49.9157C116.122 52.0384 114.19 53.6465 112 53.6465Z" fill="#415F26"/>
</g>
<defs>
<clipPath id="clip0_3_12753">
<rect width="224" height="238" fill="white"/>
</clipPath>
</defs>
</svg>
