<svg width="179" height="238" viewBox="0 0 179 238" fill="none" xmlns="http://www.w3.org/2000/svg">
<g clip-path="url(#clip0_2_6553)">
<path d="M130.488 35.0039C128.64 33.1476 125.736 33.1476 123.888 35.0039L96.9583 62.0524C95.1102 63.9086 95.1102 66.8256 96.9583 68.6819C97.8824 69.61 99.0704 70.0741 100.258 70.0741C101.447 70.0741 102.635 69.61 103.559 68.6819L130.488 41.6334C132.336 39.7772 132.336 36.8602 130.488 35.0039Z" fill="#415F26"/>
<path d="M95.0444 70.6045C93.1964 68.7482 90.2922 68.7482 88.4441 70.6045L82.7679 76.3058C80.9198 78.1621 80.9198 81.0791 82.7679 82.9354C83.6919 83.8635 84.88 84.3276 86.068 84.3276C87.2561 84.3276 88.4442 83.8635 89.3682 82.9354L95.0444 77.234C96.8925 75.3777 96.8925 72.4607 95.0444 70.6045Z" fill="#415F26"/>
<path d="M39.4036 228.321H25.807C23.2989 228.321 21.1208 230.177 20.9888 232.696C20.8568 235.414 22.9689 237.668 25.609 237.668H39.2056C41.7137 237.668 43.8918 235.812 44.0238 233.293C44.1558 230.575 42.0437 228.321 39.4036 228.321Z" fill="#415F26"/>
<path d="M164.413 197.096H153.919V183.041C162.961 180.92 169.694 172.765 169.694 163.086C169.694 155.529 165.601 148.899 159.529 145.385C160.189 141.474 160.519 137.43 160.519 133.452C160.519 111.906 150.949 91.4875 134.646 77.698L141.906 70.4056C143.688 68.6156 143.688 65.6323 141.906 63.8423C140.124 62.0524 137.154 62.0524 135.372 63.8423L97.5524 101.83L93.5262 97.7855L78.8075 83.0017L74.7153 78.8913L132.666 20.4189L136.758 24.5292L155.635 43.4897L145.272 53.898C145.272 53.898 144.744 54.2958 144.546 54.4947C142.764 56.2847 142.764 59.1354 144.414 60.9916C145.272 61.9198 146.461 62.5164 147.715 62.5164C148.969 62.5164 150.223 62.0524 151.147 61.1242L165.469 46.7382C167.251 44.9482 167.251 41.9649 165.469 40.1086L161.377 35.9983L174.578 22.7393C174.578 22.7393 175.172 22.0763 175.37 21.6785C176.36 19.756 175.964 17.5682 174.578 16.1097L159.793 1.39219C158.011 -0.39778 155.041 -0.39778 153.259 1.39219L140.058 14.6512L135.966 10.5409C134.184 8.75097 131.214 8.75097 129.432 10.5409L64.7489 75.444C63.3628 76.8362 62.9668 79.0239 63.9569 81.0128C64.1549 81.4106 64.4849 81.7421 64.7489 82.0735L68.8411 86.1838L55.6405 99.4429C54.7825 100.305 54.2544 101.498 54.2544 102.758C54.2544 104.017 54.7164 105.211 55.6405 106.072L70.4251 120.923C71.3492 121.851 72.5372 122.315 73.7253 122.315C74.9134 122.315 76.1014 121.851 77.0254 120.923L90.226 107.663L94.3182 111.774C94.3182 111.774 94.9782 112.37 95.3743 112.569C97.2883 113.564 99.4664 113.166 100.919 111.774L128.178 84.3939C142.764 96.3933 151.345 114.492 151.345 133.519C151.345 136.568 151.147 139.684 150.685 142.734C150.289 142.734 149.827 142.734 149.431 142.734C138.21 142.734 129.036 151.949 129.036 163.219C129.036 168.456 131.016 173.296 134.316 176.942C122.369 189.737 105.803 197.03 88.1799 197.03C70.5572 197.03 53.3304 189.406 41.3839 176.213H70.4912C72.9993 176.213 75.1774 174.357 75.3094 171.837C75.4414 169.119 73.3293 166.865 70.6892 166.865H4.81822C2.31011 166.865 0.132015 168.721 8.8294e-06 171.241C-0.131997 173.959 1.9801 176.213 4.62021 176.213H28.5793C34.8496 184.964 42.7699 192.057 51.8123 197.228H13.0026C10.2965 197.228 8.18437 199.416 8.18437 202.068V235.017C8.18437 235.481 8.38238 235.879 8.64639 236.144C12.6726 240.121 17.4248 237.337 17.4248 233.359V211.747C17.4248 208.83 19.8009 206.443 22.705 206.443H164.545C167.449 206.443 169.826 208.83 169.826 211.747V228.387H53.0004C50.4923 228.387 48.3142 230.243 48.1822 232.763C48.0502 235.481 50.1622 237.735 52.8024 237.735H174.05C174.05 237.735 174.248 237.735 174.314 237.735C176.888 237.735 179 235.613 179 233.094V211.813C179 203.725 172.466 197.162 164.413 197.162V197.096ZM156.757 10.2758L165.007 18.5627L155.041 28.5732L146.791 20.2863L156.757 10.2758ZM73.3953 110.514L65.1449 102.227L75.1114 92.2167L83.3617 100.504L73.3953 110.514ZM144.678 197.096H123.492C130.29 193.251 136.56 188.279 141.906 182.246C142.83 182.577 143.754 182.909 144.678 183.108V197.03V197.096ZM138.276 162.954C138.276 156.788 143.292 151.75 149.431 151.75C155.569 151.75 160.585 156.788 160.585 162.954C160.585 169.119 155.569 174.158 149.431 174.158C143.292 174.158 138.276 169.119 138.276 162.954Z" fill="#415F26"/>
</g>
<defs>
<clipPath id="clip0_2_6553">
<rect width="179" height="238" fill="white"/>
</clipPath>
</defs>
</svg>
