<svg width="211" height="238" viewBox="0 0 211 238" fill="none" xmlns="http://www.w3.org/2000/svg">
<g clip-path="url(#clip0_2_4904)">
<path d="M211 119.07C211 111.374 204.778 105.148 197.087 105.148H176.532L184.153 85.4198C189.117 83.3909 193.242 79.7531 195.969 75.0658C202.68 63.3827 198.695 48.4115 187.02 41.6255C175.344 34.9095 160.382 38.8971 153.601 50.5802C150.804 55.4074 149.895 60.8642 150.525 66.0411L119.063 105.148H14.1925C6.92146 105.148 0.699131 110.605 0.0699065 117.881C-0.559318 125.156 4.75413 131.732 11.7455 132.852V169.23C11.7455 195.325 31.7409 216.802 57.2594 219.181V226.247C57.2594 232.753 62.503 238 69.005 238H142.065C148.567 238 153.81 232.753 153.81 226.247V219.181C179.259 216.802 199.324 195.325 199.324 169.23V132.852C205.966 131.802 211.07 126.066 211.07 119.07H211ZM161.781 55.0576C164.577 50.2305 169.681 47.5021 174.924 47.5021C177.511 47.5021 180.098 48.1317 182.475 49.5309C189.746 53.7284 192.193 63.0329 187.998 70.2387C185.971 73.7366 182.685 76.2551 178.77 77.3045C174.855 78.3539 170.8 77.7942 167.234 75.7654C159.963 71.5679 157.516 62.2634 161.711 55.0576H161.781ZM154.44 76.1852C156.467 79.3333 159.264 81.9918 162.69 84.0206C166.045 85.9794 169.821 87.0288 173.596 87.2387L166.675 105.148H131.158L154.44 76.1852ZM142.065 228.695H69.005C67.6766 228.695 66.558 227.576 66.558 226.247V219.391H144.512V226.247C144.512 227.576 143.393 228.695 142.065 228.695ZM197.157 123.757H126.614C124.307 123.757 122.209 125.436 121.86 127.745C121.44 130.613 123.678 133.062 126.474 133.062H189.956V169.3C189.956 191.897 171.708 210.156 149.126 210.156H61.8737C39.2916 210.156 21.0441 191.897 21.0441 169.3V133.062H84.4559C86.7631 133.062 88.8605 131.383 89.2101 129.074C89.6295 126.206 87.3923 123.757 84.5957 123.757H14.1226C11.8154 123.757 9.71802 122.078 9.36845 119.839C8.94897 116.971 11.1862 114.523 13.9828 114.523H197.017C199.324 114.523 201.422 116.202 201.771 118.44C202.191 121.309 199.954 123.757 197.157 123.757Z" fill="#415F26"/>
<path d="M74.1787 93.8148C75.3672 93.8148 76.5557 93.3951 77.4646 92.4856L81.4497 88.4979C83.9666 88.9177 86.4835 89.1276 89.0004 89.1276C100.886 89.1276 112.422 84.4403 121.021 75.7654C128.921 67.8601 133.605 57.3663 134.235 46.2428C134.514 41.6255 132.766 37.0782 129.481 33.7901C126.195 30.5021 121.65 28.7531 117.036 29.0329C105.92 29.6626 95.4325 34.3498 87.5322 42.2551C77.0451 52.749 72.4308 67.3704 74.8079 81.8519L70.8228 85.8395C69.005 87.6584 69.005 90.5967 70.8228 92.4156C71.7317 93.3251 72.9202 93.7449 74.1087 93.7449L74.1787 93.8148ZM94.174 48.8313C100.466 42.535 108.786 38.8272 117.665 38.2675C119.693 38.1276 121.58 38.8971 123.048 40.2963C124.447 41.6955 125.216 43.6543 125.076 45.6831C124.587 54.5679 120.811 62.893 114.519 69.1893C107.947 75.7654 99.2078 79.4733 90.119 79.7531L105.85 64.0123C107.667 62.1934 107.667 59.2551 105.85 57.4362C104.032 55.6173 101.095 55.6173 99.2777 57.4362L83.5471 73.177C83.8268 64.0823 87.5322 55.4074 94.1041 48.7613L94.174 48.8313Z" fill="#415F26"/>
<path d="M6.85167 11.963C4.40469 26.4444 9.08892 41.1358 19.576 51.5597C27.4763 59.465 37.9633 64.1523 49.0796 64.7819C49.3593 64.7819 49.7089 64.7819 49.9885 64.7819C54.3232 64.7819 58.4481 63.1029 61.5243 60.0247C64.8103 56.7366 66.5581 52.1893 66.2784 47.572C65.6492 36.4486 60.965 25.9547 53.0647 18.0494C42.5077 7.62551 27.8957 2.93827 13.4236 5.38683L9.36857 1.32922C7.55081 -0.419756 4.61443 -0.419756 2.79667 1.32922C0.97891 3.14815 0.97891 6.08642 2.79667 7.90535L6.78176 11.893L6.85167 11.963ZM46.4229 24.6255C52.7152 30.9218 56.4206 39.2469 56.9799 48.1317C57.1197 50.1605 56.3507 52.0494 54.9524 53.5185C53.5541 54.9177 51.5965 55.6872 49.569 55.5473C40.69 55.0576 32.3702 51.2798 26.078 44.9835C19.5061 38.4074 15.8006 29.6625 15.521 20.5679L31.2516 36.3086C32.1605 37.2181 33.349 37.6379 34.5376 37.6379C35.7261 37.6379 36.9146 37.2181 37.8235 36.3086C39.6413 34.4897 39.6413 31.5514 37.8235 29.7325L22.0929 13.9918C31.1817 14.2716 39.851 17.9794 46.4928 24.5556L46.4229 24.6255Z" fill="#415F26"/>
<path d="M105.57 132.782C108.118 132.782 110.184 130.715 110.184 128.165C110.184 125.615 108.118 123.547 105.57 123.547C103.021 123.547 100.956 125.615 100.956 128.165C100.956 130.715 103.021 132.782 105.57 132.782Z" fill="#415F26"/>
</g>
<defs>
<clipPath id="clip0_2_4904">
<rect width="211" height="238" fill="white"/>
</clipPath>
</defs>
</svg>
