<svg width="125" height="140" viewBox="0 0 125 140" fill="none" xmlns="http://www.w3.org/2000/svg">
<g clip-path="url(#clip0_3_19830)">
<path d="M121.25 21.5269C123.3 21.5269 125 19.8208 125 17.7634V5.51971C125 2.45878 122.55 0 119.5 0H5.5C2.45 0 0 2.45878 0 5.51971V17.7133C0 19.8208 1.7 21.5269 3.8 21.5269H7.55V42H3.8C1.7 42 0 43.7061 0 45.7634V54.8961C0 56.9534 1.7 58.6595 3.75 58.6595H7.5V81.2903H3.75C1.7 81.2903 0 82.9964 0 85.0538V93.6846C0 95.7419 1.65 97.448 3.75 97.448H7.55V117.921H3.8C1.7 117.921 0 119.577 0 121.685V137.14C0 138.695 1.25 140 2.85 140H68.95C69.35 140 69.75 139.849 70.05 139.548C72.05 137.29 70.45 134.631 68.3 134.631H5.4V123.391H119.6V134.631H94.2C93.8 134.631 93.4 134.781 93.1 135.082C91.1 137.341 92.7 140 94.85 140H122.15C123.7 140 125 138.746 125 137.14V121.735C125 119.627 123.3 117.921 121.2 117.921H117.45V97.448H121.2C123.25 97.448 124.95 95.7419 124.95 93.6846V85.0538C124.95 82.9964 123.25 81.2903 121.2 81.2903H117.45V58.6595H121.2C123.25 58.6595 124.95 56.9534 124.95 54.8961V45.7133C124.95 43.6559 123.3 41.9498 121.2 41.9498H117.4V21.4767H121.15L121.25 21.5269ZM5.35 16.6595V5.41936H119.55V16.6595H5.4H5.35ZM84.75 112H93.85V117.369H84.75V112ZM78.85 109.09V117.369H57.4V107.685H78.85V109.14V109.09ZM52.05 117.369H30.6V107.685H52.05V117.369ZM111.6 117.921H99.25V112.1C99.25 109.09 96.8 106.631 93.8 106.631H84.25C83.65 104.172 81.5 102.315 78.95 102.315H30.65C27.65 102.315 25.2 104.774 25.2 107.785V117.921H12.85V97.448H111.55V117.921H111.6ZM119.65 92.0789H5.35V86.7097H119.6V92.0789H119.65ZM72.4 75.3692H77.75V80.7384H72.4V75.3692ZM88.5 80.7384H83.15V75.3692H88.5V80.7384ZM67.05 73.0609V81.2903H54.15V71.6057H67.05V73.0609ZM48.8 81.2903H35.9V71.6057H48.8V81.2903ZM111.6 81.2903H94.45V75.4695C94.45 72.4588 92 70 89 70H72.4C71.85 67.5412 69.65 65.6846 67.1 65.6846H36.1C33.1 65.6846 30.65 68.1434 30.65 71.1541V81.2903H12.95V58.6595H111.65V81.2903H111.6ZM119.65 52.7885H5.35V47.4194H119.6V52.7885H119.65ZM41.3 34.9749H49.35V41.9498H41.3V34.9749ZM55.25 34.9749H63.3V41.9498H55.25V34.9749ZM35.95 42H27.9V35.0251H35.95V42ZM99.8 42H94.45V35.0251H99.8V42ZM111.6 42H105.15V35.0753C105.15 32.0645 102.7 29.6057 99.7 29.6057H94C91 29.6057 88.55 32.0645 88.55 35.0753V42H68.7V35.0753C68.7 32.0645 66.25 29.6057 63.25 29.6057H28.05C25.05 29.6057 22.6 32.0645 22.6 35.0753V42H12.95V21.5269H111.65V42H111.6Z" fill="#415F26"/>
<path d="M81.7 139.799C83.2187 139.799 84.4499 138.563 84.4499 137.039C84.4499 135.515 83.2187 134.279 81.7 134.279C80.1812 134.279 78.95 135.515 78.95 137.039C78.95 138.563 80.1812 139.799 81.7 139.799Z" fill="#415F26"/>
</g>
<defs>
<clipPath id="clip0_3_19830">
<rect width="125" height="140" fill="white"/>
</clipPath>
</defs>
</svg>
